# xmcd
#
# Track frame offsets:
#	150
#	17847
#	30974
#	46808
#
# Disc length: 906 seconds
#
# Revision: 0
# Processed by: cddbd v1.5.2PL0 Copyright (c) Steve Scherf et al.
# Submitted via: audiograbber 1.81.03
#
DISCID=21038804
DTITLE=D'r Frank - Ne St‰‰n
DYEAR=2007
DGENRE=Schlager
TTITLE0=Ne St‰‰n (Radio Mix)
TTITLE1=Ne Fastelovendsjeck
TTITLE2=Kˆlle Allaaf
TTITLE3=Ne St‰‰n (Himmelszelt Mix)
EXTD=
EXTT0=
EXTT1=
EXTT2=
EXTT3=
PLAYORDER=
